<?xml version="1.0" encoding="UTF-8" standalone="no"?>
<!DOCTYPE svg PUBLIC "-//W3C//DTD SVG 1.1//EN" "http://www.w3.org/Graphics/SVG/1.1/DTD/svg11.dtd">
<svg xmlns="http://www.w3.org/2000/svg" version="1.1" viewBox="0.00 0.00 676.00 676.00">
<g stroke-width="2.00" fill="none" stroke-linecap="butt">
<path stroke="#1a2351" vector-effect="non-scaling-stroke" d="
  M 146.06 219.64
  Q 145.46 219.96 145.31 220.21
  Q 107.38 283.27 112.91 357.76
  Q 112.97 358.59 112.46 359.25
  Q 106.98 366.41 101.90 373.05
  A 0.58 0.58 0.0 0 1 101.09 373.16
  Q 96.75 369.86 92.15 366.35
  Q 91.56 365.90 91.23 365.86
  Q 90.32 365.76 90.49 366.65
  L 94.25 386.99"
/>
<path stroke="#801115" vector-effect="non-scaling-stroke" d="
  M 94.25 386.99
  Q 93.95 387.17 94.08 387.75
  Q 109.68 459.78 160.14 512.04
  C 169.18 521.41 179.26 530.03 189.71 538.23
  A 0.55 0.54 15.7 0 0 190.59 537.74
  L 189.13 525.66
  Q 189.05 525.01 189.71 524.92
  L 207.37 522.64
  A 1.27 1.24 58.1 0 1 208.27 522.86
  C 286.35 577.16 389.27 577.50 467.45 523.00
  A 1.98 1.94 -58.2 0 1 468.83 522.66
  L 486.32 524.93
  Q 486.92 525.01 486.85 525.61
  Q 486.24 530.92 485.48 536.78
  Q 485.38 537.54 485.67 538.21
  A 0.26 0.26 0.0 0 0 486.07 538.31
  Q 547.29 491.84 573.18 419.25
  Q 573.40 418.62 573.46 417.79"
/>
<path stroke="#1a2351" vector-effect="non-scaling-stroke" d="
  M 573.46 417.79
  Q 573.63 418.02 573.80 417.50
  Q 581.79 393.58 585.16 368.59
  Q 585.24 367.97 585.41 367.41
  Q 585.60 366.74 585.43 366.13
  A 0.55 0.55 0.0 0 0 584.57 365.84
  L 574.88 373.17
  A 0.54 0.54 0.0 0 1 574.12 373.07
  L 563.40 359.08
  A 2.23 2.22 -61.3 0 1 562.95 357.52
  Q 567.16 306.98 549.71 259.45
  A 0.38 0.38 0.0 0 0 549.04 259.36
  L 535.32 278.61
  A 1.47 1.47 0.0 0 0 535.11 279.89
  Q 545.28 314.75 543.13 350.67
  A 1.35 1.35 0.0 0 1 542.51 351.73
  Q 533.69 357.30 525.09 364.28
  Q 524.09 365.10 525.37 365.31
  L 550.62 369.48
  A 1.52 1.51 -8.0 0 1 551.74 370.32
  L 557.24 381.94
  Q 557.48 382.44 557.37 382.97
  Q 553.37 402.75 546.05 421.25
  Q 545.86 421.71 546.22 422.44"
/>
<path stroke="#801115" vector-effect="non-scaling-stroke" d="
  M 546.22 422.44
  Q 545.45 422.75 545.33 423.05
  Q 525.57 471.06 486.65 505.46
  Q 486.21 505.85 485.64 505.89
  L 472.80 506.95
  A 1.34 1.32 -21.5 0 1 471.65 506.46
  L 455.29 486.53
  Q 454.52 485.59 454.32 486.79
  Q 452.60 497.05 452.14 508.32
  Q 452.12 508.87 451.66 509.17
  Q 422.53 528.52 388.12 537.30
  A 0.43 0.42 -10.5 0 1 387.60 536.95
  L 386.22 526.30
  A 0.63 0.63 0.0 0 1 386.68 525.61
  C 403.86 520.97 421.42 514.13 436.45 504.61
  Q 437.25 504.11 437.01 503.20
  Q 436.96 503.02 436.82 502.91
  Q 435.98 502.26 435.07 502.79
  C 419.37 511.86 403.31 518.39 386.37 522.79
  Q 385.72 522.96 385.65 522.29
  Q 383.77 502.94 381.34 482.89
  C 380.26 473.98 380.47 464.86 379.69 455.92
  C 378.06 437.48 377.56 420.28 381.45 402.53
  Q 383.16 394.71 387.01 384.82
  Q 390.49 375.90 393.92 367.57
  C 398.84 355.64 406.21 343.98 411.62 330.94
  C 412.91 327.84 412.72 324.73 412.38 321.54
  C 412.03 318.20 408.27 314.72 405.74 312.80
  A 0.40 0.39 48.0 0 1 405.77 312.14
  Q 434.27 295.20 467.20 275.70
  C 472.58 272.51 478.14 269.50 483.21 268.90
  Q 483.87 268.82 484.26 269.35
  Q 485.78 271.41 484.71 274.15
  Q 481.41 282.61 476.74 289.31
  Q 475.53 291.05 477.16 289.69
  L 599.07 187.56
  Q 600.46 186.39 598.76 187.02
  L 448.98 241.66
  Q 447.52 242.19 449.08 242.08
  Q 456.08 241.60 463.52 242.29
  Q 466.43 242.56 469.12 243.71
  A 2.29 2.29 0.0 0 1 469.96 247.32
  C 466.30 251.58 460.09 255.18 455.01 258.03
  Q 424.30 275.26 394.43 292.01
  A 0.38 0.38 0.0 0 1 393.86 291.71
  Q 393.03 282.08 391.43 272.09
  Q 390.24 264.62 387.86 258.67
  C 387.07 256.69 384.14 252.98 381.48 253.00
  Q 368.46 253.13 359.80 261.41
  C 358.28 262.87 357.47 264.51 356.71 266.44
  Q 356.35 267.36 356.02 266.43
  Q 354.76 262.87 353.29 260.09
  Q 352.16 257.95 348.83 255.83
  C 346.47 254.33 344.67 252.67 341.69 253.86
  Q 335.58 256.31 326.95 260.23
  C 322.25 262.37 319.36 266.73 316.60 270.99
  Q 315.40 272.84 315.43 275.15
  C 315.55 282.22 317.32 288.02 319.85 294.32
  Q 320.14 295.05 319.47 294.63
  Q 314.58 291.54 312.48 288.94
  Q 309.62 285.40 307.44 283.81
  C 304.65 281.80 299.80 282.47 296.55 282.40
  A 1.68 1.63 24.6 0 0 295.45 282.79
  Q 289.42 287.86 285.52 294.24
  C 282.48 299.19 281.82 306.97 281.40 312.75
  Q 281.36 313.24 281.61 313.67
  L 282.67 315.51
  A 0.43 0.43 0.0 0 1 282.23 316.15
  Q 277.77 315.43 274.22 317.08
  Q 273.61 317.37 273.27 317.94
  Q 269.27 324.73 267.65 332.46
  Q 267.06 335.24 267.82 338.14
  Q 270.05 346.60 273.46 353.99
  Q 274.47 356.20 274.60 358.65
  Q 274.63 359.23 274.13 359.51
  Q 243.27 376.77 212.41 394.13
  C 206.19 397.62 199.69 400.75 193.15 403.74
  C 178.25 410.55 159.99 415.58 143.80 415.15
  C 137.28 414.98 131.46 412.03 125.78 408.92
  Q 125.32 408.67 125.17 408.16
  L 121.52 395.52"
/>
<path stroke="#1a2351" vector-effect="non-scaling-stroke" d="
  M 121.52 395.52
  L 118.62 383.15
  A 1.71 1.71 0.0 0 1 118.73 382.03
  L 124.28 370.21
  Q 124.62 369.47 125.42 369.36
  Q 138.56 367.55 151.17 365.07
  A 0.26 0.25 59.4 0 0 151.28 364.62
  Q 142.73 357.56 133.52 351.77
  Q 132.84 351.35 132.80 350.54
  Q 129.29 282.59 165.99 225.73
  Q 166.37 225.13 166.36 224.15"
/>
<path stroke="#8b8d94" vector-effect="non-scaling-stroke" d="
  M 166.36 224.15
  Q 166.79 224.42 167.04 224.05
  Q 197.91 178.29 246.55 153.98
  Q 247.06 153.72 247.56 153.99
  Q 257.02 158.97 267.61 162.95
  A 0.40 0.40 0.0 0 0 268.12 162.44
  L 258.87 137.89
  Q 258.66 137.35 258.99 136.88
  L 266.46 126.17
  A 2.09 2.03 -80.7 0 1 267.51 125.39
  Q 337.87 102.39 408.16 125.29
  Q 409.15 125.61 409.73 126.45
  Q 413.66 132.08 417.06 136.97
  Q 417.38 137.42 417.17 137.94
  Q 413.34 147.73 409.50 158.00
  Q 408.73 160.04 408.16 162.53
  Q 408.03 163.10 408.57 162.89
  Q 419.23 158.86 428.43 153.98
  Q 428.93 153.71 429.43 153.96
  Q 461.68 170.09 486.65 196.13
  A 1.38 1.38 0.0 0 0 487.77 196.55
  L 511.25 194.25
  Q 512.08 194.17 511.54 193.52
  Q 479.00 154.68 433.33 133.30
  A 1.53 1.52 -89.0 0 1 432.55 132.49
  L 425.70 116.02
  Q 425.49 115.50 426.00 115.28
  L 437.26 110.50
  A 0.54 0.54 0.0 0 0 437.26 109.50
  Q 368.36 80.85 296.22 92.74
  C 276.40 96.00 257.39 101.79 238.61 109.55
  A 0.48 0.48 0.0 0 0 238.61 110.43
  L 250.01 115.30
  A 0.54 0.54 0.0 0 1 250.30 116.01
  L 243.43 132.53
  A 1.35 1.35 0.0 0 1 242.77 133.22
  Q 182.27 161.84 146.53 218.27
  Q 146.00 219.11 146.06 219.64"
/>
<path stroke="#8d94bb" vector-effect="non-scaling-stroke" d="
  M 166.36 224.15
  L 146.06 219.64"
/>
<path stroke="#82183c" vector-effect="non-scaling-stroke" d="
  M 546.22 422.44
  L 573.46 417.79"
/>
<path stroke="#82183c" vector-effect="non-scaling-stroke" d="
  M 94.25 386.99
  L 121.52 395.52"
/>
<path stroke="#8b8d94" vector-effect="non-scaling-stroke" d="
  M 325.29 148.08
  A 0.44 0.44 0.0 0 0 325.20 148.44
  L 337.57 213.63
  A 0.44 0.44 0.0 0 0 338.43 213.63
  L 350.80 148.45
  A 0.44 0.44 0.0 0 0 350.71 148.08
  L 338.33 133.34
  A 0.44 0.44 0.0 0 0 337.65 133.34
  L 325.29 148.08"
/>
<path stroke="#1a2351" vector-effect="non-scaling-stroke" d="
  M 179.63 226.24
  Q 147.77 271.75 144.61 327.51
  Q 144.24 334.10 144.59 340.18
  Q 144.64 341.17 145.68 341.15
  A 0.80 0.79 -83.0 0 0 146.45 340.54
  Q 146.87 338.74 146.90 336.75
  Q 147.84 276.48 182.25 227.29"
/>
<path stroke="#8b8d94" vector-effect="non-scaling-stroke" d="
  M 182.25 227.29
  Q 185.38 223.05 188.76 218.80
  Q 207.73 194.96 232.40 178.67
  Q 238.08 174.92 244.25 171.18
  A 0.87 0.86 69.1 0 0 244.65 170.28
  Q 244.60 170.04 244.48 169.84
  A 1.17 1.17 0.0 0 0 242.92 169.39
  C 217.94 182.76 195.73 203.45 179.63 226.24"
/>
<path stroke="#8d94bb" vector-effect="non-scaling-stroke" d="
  M 182.25 227.29
  L 179.63 226.24"
/>
<path stroke="#8b8d94" vector-effect="non-scaling-stroke" d="
  M 435.27 170.53
  Q 433.94 169.76 432.54 169.31
  A 0.77 0.76 -66.3 0 0 431.64 169.67
  L 431.41 170.07
  Q 430.99 170.84 431.74 171.27
  Q 452.02 182.94 468.33 198.22
  Q 468.54 198.41 468.81 198.38
  L 471.79 198.14
  A 0.11 0.11 0.0 0 0 471.85 197.95
  Q 455.53 182.31 435.27 170.53"
/>
<path stroke="#1a2351" vector-effect="non-scaling-stroke" d="
  M 525.57 292.27
  L 524.62 293.58
  A 2.04 2.03 56.5 0 0 524.28 295.26
  Q 529.15 315.84 529.30 339.62
  A 1.16 1.14 31.6 0 0 529.43 340.15
  Q 530.41 341.93 531.34 340.49
  A 0.98 0.91 -29.7 0 0 531.49 340.02
  Q 532.06 316.76 526.34 292.43
  Q 526.12 291.52 525.57 292.27"
/>
<path stroke="#801115" vector-effect="non-scaling-stroke" d="
  M 480.71 430.91
  L 495.58 443.53
  A 1.45 1.45 0.0 0 0 496.80 443.86
  L 515.24 440.58
  Q 515.68 440.50 515.52 440.09
  L 510.61 427.42"
/>
<path stroke="#1a2351" vector-effect="non-scaling-stroke" d="
  M 510.61 427.42
  Q 510.15 424.59 508.87 422.30
  Q 508.63 421.87 508.17 421.71
  Q 477.32 410.49 446.19 400.10
  Q 444.74 399.62 445.89 400.62
  L 480.71 430.91"
/>
<path stroke="#82183c" vector-effect="non-scaling-stroke" d="
  M 510.61 427.42
  L 480.71 430.91"
/>
<path stroke="#801115" vector-effect="non-scaling-stroke" d="
  M 221.73 486.62
  Q 223.31 497.14 223.86 508.24
  A 1.32 1.30 15.8 0 0 224.45 509.27
  Q 253.26 528.27 286.21 536.86
  A 0.46 0.46 0.0 0 0 286.78 536.48
  L 288.16 525.72
  A 0.51 0.51 0.0 0 0 287.79 525.16
  Q 261.17 517.81 239.52 504.66
  A 1.15 1.14 -74.1 0 1 238.97 503.66
  Q 239.00 502.57 239.81 502.62
  Q 240.73 502.66 241.48 503.10
  Q 264.06 516.11 288.01 522.38
  A 0.50 0.49 9.9 0 0 288.63 521.95
  Q 289.48 511.69 291.30 501.67
  Q 292.29 496.20 293.02 491.68
  Q 297.57 463.24 300.51 433.90
  Q 300.78 431.19 300.14 428.98
  C 297.25 419.06 293.49 407.56 286.88 399.46
  C 283.87 395.79 282.05 391.55 281.24 386.90
  A 0.50 0.50 0.0 0 0 280.49 386.55
  Q 253.80 402.43 227.72 417.89
  C 220.86 421.96 213.01 427.16 207.59 431.10
  Q 200.07 436.55 190.74 445.73
  Q 181.89 454.43 175.40 464.94
  C 171.34 471.51 170.49 478.02 170.46 486.25
  Q 170.45 486.78 170.81 487.17
  Q 179.87 497.07 189.34 505.48
  Q 189.73 505.84 190.26 505.88
  L 203.08 506.95
  Q 203.89 507.02 204.41 506.39
  L 220.83 486.37
  A 0.51 0.51 0.0 0 1 221.73 486.62"
/>
</g>
<path fill="#181c2a" d="
  M 0.00 0.00
  L 676.00 0.00
  L 676.00 676.00
  L 0.00 676.00
  L 0.00 0.00
  Z
  M 146.06 219.64
  Q 145.46 219.96 145.31 220.21
  Q 107.38 283.27 112.91 357.76
  Q 112.97 358.59 112.46 359.25
  Q 106.98 366.41 101.90 373.05
  A 0.58 0.58 0.0 0 1 101.09 373.16
  Q 96.75 369.86 92.15 366.35
  Q 91.56 365.90 91.23 365.86
  Q 90.32 365.76 90.49 366.65
  L 94.25 386.99
  Q 93.95 387.17 94.08 387.75
  Q 109.68 459.78 160.14 512.04
  C 169.18 521.41 179.26 530.03 189.71 538.23
  A 0.55 0.54 15.7 0 0 190.59 537.74
  L 189.13 525.66
  Q 189.05 525.01 189.71 524.92
  L 207.37 522.64
  A 1.27 1.24 58.1 0 1 208.27 522.86
  C 286.35 577.16 389.27 577.50 467.45 523.00
  A 1.98 1.94 -58.2 0 1 468.83 522.66
  L 486.32 524.93
  Q 486.92 525.01 486.85 525.61
  Q 486.24 530.92 485.48 536.78
  Q 485.38 537.54 485.67 538.21
  A 0.26 0.26 0.0 0 0 486.07 538.31
  Q 547.29 491.84 573.18 419.25
  Q 573.40 418.62 573.46 417.79
  Q 573.63 418.02 573.80 417.50
  Q 581.79 393.58 585.16 368.59
  Q 585.24 367.97 585.41 367.41
  Q 585.60 366.74 585.43 366.13
  A 0.55 0.55 0.0 0 0 584.57 365.84
  L 574.88 373.17
  A 0.54 0.54 0.0 0 1 574.12 373.07
  L 563.40 359.08
  A 2.23 2.22 -61.3 0 1 562.95 357.52
  Q 567.16 306.98 549.71 259.45
  A 0.38 0.38 0.0 0 0 549.04 259.36
  L 535.32 278.61
  A 1.47 1.47 0.0 0 0 535.11 279.89
  Q 545.28 314.75 543.13 350.67
  A 1.35 1.35 0.0 0 1 542.51 351.73
  Q 533.69 357.30 525.09 364.28
  Q 524.09 365.10 525.37 365.31
  L 550.62 369.48
  A 1.52 1.51 -8.0 0 1 551.74 370.32
  L 557.24 381.94
  Q 557.48 382.44 557.37 382.97
  Q 553.37 402.75 546.05 421.25
  Q 545.86 421.71 546.22 422.44
  Q 545.45 422.75 545.33 423.05
  Q 525.57 471.06 486.65 505.46
  Q 486.21 505.85 485.64 505.89
  L 472.80 506.95
  A 1.34 1.32 -21.5 0 1 471.65 506.46
  L 455.29 486.53
  Q 454.52 485.59 454.32 486.79
  Q 452.60 497.05 452.14 508.32
  Q 452.12 508.87 451.66 509.17
  Q 422.53 528.52 388.12 537.30
  A 0.43 0.42 -10.5 0 1 387.60 536.95
  L 386.22 526.30
  A 0.63 0.63 0.0 0 1 386.68 525.61
  C 403.86 520.97 421.42 514.13 436.45 504.61
  Q 437.25 504.11 437.01 503.20
  Q 436.96 503.02 436.82 502.91
  Q 435.98 502.26 435.07 502.79
  C 419.37 511.86 403.31 518.39 386.37 522.79
  Q 385.72 522.96 385.65 522.29
  Q 383.77 502.94 381.34 482.89
  C 380.26 473.98 380.47 464.86 379.69 455.92
  C 378.06 437.48 377.56 420.28 381.45 402.53
  Q 383.16 394.71 387.01 384.82
  Q 390.49 375.90 393.92 367.57
  C 398.84 355.64 406.21 343.98 411.62 330.94
  C 412.91 327.84 412.72 324.73 412.38 321.54
  C 412.03 318.20 408.27 314.72 405.74 312.80
  A 0.40 0.39 48.0 0 1 405.77 312.14
  Q 434.27 295.20 467.20 275.70
  C 472.58 272.51 478.14 269.50 483.21 268.90
  Q 483.87 268.82 484.26 269.35
  Q 485.78 271.41 484.71 274.15
  Q 481.41 282.61 476.74 289.31
  Q 475.53 291.05 477.16 289.69
  L 599.07 187.56
  Q 600.46 186.39 598.76 187.02
  L 448.98 241.66
  Q 447.52 242.19 449.08 242.08
  Q 456.08 241.60 463.52 242.29
  Q 466.43 242.56 469.12 243.71
  A 2.29 2.29 0.0 0 1 469.96 247.32
  C 466.30 251.58 460.09 255.18 455.01 258.03
  Q 424.30 275.26 394.43 292.01
  A 0.38 0.38 0.0 0 1 393.86 291.71
  Q 393.03 282.08 391.43 272.09
  Q 390.24 264.62 387.86 258.67
  C 387.07 256.69 384.14 252.98 381.48 253.00
  Q 368.46 253.13 359.80 261.41
  C 358.28 262.87 357.47 264.51 356.71 266.44
  Q 356.35 267.36 356.02 266.43
  Q 354.76 262.87 353.29 260.09
  Q 352.16 257.95 348.83 255.83
  C 346.47 254.33 344.67 252.67 341.69 253.86
  Q 335.58 256.31 326.95 260.23
  C 322.25 262.37 319.36 266.73 316.60 270.99
  Q 315.40 272.84 315.43 275.15
  C 315.55 282.22 317.32 288.02 319.85 294.32
  Q 320.14 295.05 319.47 294.63
  Q 314.58 291.54 312.48 288.94
  Q 309.62 285.40 307.44 283.81
  C 304.65 281.80 299.80 282.47 296.55 282.40
  A 1.68 1.63 24.6 0 0 295.45 282.79
  Q 289.42 287.86 285.52 294.24
  C 282.48 299.19 281.82 306.97 281.40 312.75
  Q 281.36 313.24 281.61 313.67
  L 282.67 315.51
  A 0.43 0.43 0.0 0 1 282.23 316.15
  Q 277.77 315.43 274.22 317.08
  Q 273.61 317.37 273.27 317.94
  Q 269.27 324.73 267.65 332.46
  Q 267.06 335.24 267.82 338.14
  Q 270.05 346.60 273.46 353.99
  Q 274.47 356.20 274.60 358.65
  Q 274.63 359.23 274.13 359.51
  Q 243.27 376.77 212.41 394.13
  C 206.19 397.62 199.69 400.75 193.15 403.74
  C 178.25 410.55 159.99 415.58 143.80 415.15
  C 137.28 414.98 131.46 412.03 125.78 408.92
  Q 125.32 408.67 125.17 408.16
  L 121.52 395.52
  L 118.62 383.15
  A 1.71 1.71 0.0 0 1 118.73 382.03
  L 124.28 370.21
  Q 124.62 369.47 125.42 369.36
  Q 138.56 367.55 151.17 365.07
  A 0.26 0.25 59.4 0 0 151.28 364.62
  Q 142.73 357.56 133.52 351.77
  Q 132.84 351.35 132.80 350.54
  Q 129.29 282.59 165.99 225.73
  Q 166.37 225.13 166.36 224.15
  Q 166.79 224.42 167.04 224.05
  Q 197.91 178.29 246.55 153.98
  Q 247.06 153.72 247.56 153.99
  Q 257.02 158.97 267.61 162.95
  A 0.40 0.40 0.0 0 0 268.12 162.44
  L 258.87 137.89
  Q 258.66 137.35 258.99 136.88
  L 266.46 126.17
  A 2.09 2.03 -80.7 0 1 267.51 125.39
  Q 337.87 102.39 408.16 125.29
  Q 409.15 125.61 409.73 126.45
  Q 413.66 132.08 417.06 136.97
  Q 417.38 137.42 417.17 137.94
  Q 413.34 147.73 409.50 158.00
  Q 408.73 160.04 408.16 162.53
  Q 408.03 163.10 408.57 162.89
  Q 419.23 158.86 428.43 153.98
  Q 428.93 153.71 429.43 153.96
  Q 461.68 170.09 486.65 196.13
  A 1.38 1.38 0.0 0 0 487.77 196.55
  L 511.25 194.25
  Q 512.08 194.17 511.54 193.52
  Q 479.00 154.68 433.33 133.30
  A 1.53 1.52 -89.0 0 1 432.55 132.49
  L 425.70 116.02
  Q 425.49 115.50 426.00 115.28
  L 437.26 110.50
  A 0.54 0.54 0.0 0 0 437.26 109.50
  Q 368.36 80.85 296.22 92.74
  C 276.40 96.00 257.39 101.79 238.61 109.55
  A 0.48 0.48 0.0 0 0 238.61 110.43
  L 250.01 115.30
  A 0.54 0.54 0.0 0 1 250.30 116.01
  L 243.43 132.53
  A 1.35 1.35 0.0 0 1 242.77 133.22
  Q 182.27 161.84 146.53 218.27
  Q 146.00 219.11 146.06 219.64
  Z
  M 325.29 148.08
  A 0.44 0.44 0.0 0 0 325.20 148.44
  L 337.57 213.63
  A 0.44 0.44 0.0 0 0 338.43 213.63
  L 350.80 148.45
  A 0.44 0.44 0.0 0 0 350.71 148.08
  L 338.33 133.34
  A 0.44 0.44 0.0 0 0 337.65 133.34
  L 325.29 148.08
  Z
  M 179.63 226.24
  Q 147.77 271.75 144.61 327.51
  Q 144.24 334.10 144.59 340.18
  Q 144.64 341.17 145.68 341.15
  A 0.80 0.79 -83.0 0 0 146.45 340.54
  Q 146.87 338.74 146.90 336.75
  Q 147.84 276.48 182.25 227.29
  Q 185.38 223.05 188.76 218.80
  Q 207.73 194.96 232.40 178.67
  Q 238.08 174.92 244.25 171.18
  A 0.87 0.86 69.1 0 0 244.65 170.28
  Q 244.60 170.04 244.48 169.84
  A 1.17 1.17 0.0 0 0 242.92 169.39
  C 217.94 182.76 195.73 203.45 179.63 226.24
  Z
  M 435.27 170.53
  Q 433.94 169.76 432.54 169.31
  A 0.77 0.76 -66.3 0 0 431.64 169.67
  L 431.41 170.07
  Q 430.99 170.84 431.74 171.27
  Q 452.02 182.94 468.33 198.22
  Q 468.54 198.41 468.81 198.38
  L 471.79 198.14
  A 0.11 0.11 0.0 0 0 471.85 197.95
  Q 455.53 182.31 435.27 170.53
  Z
  M 525.57 292.27
  L 524.62 293.58
  A 2.04 2.03 56.5 0 0 524.28 295.26
  Q 529.15 315.84 529.30 339.62
  A 1.16 1.14 31.6 0 0 529.43 340.15
  Q 530.41 341.93 531.34 340.49
  A 0.98 0.91 -29.7 0 0 531.49 340.02
  Q 532.06 316.76 526.34 292.43
  Q 526.12 291.52 525.57 292.27
  Z
  M 480.71 430.91
  L 495.58 443.53
  A 1.45 1.45 0.0 0 0 496.80 443.86
  L 515.24 440.58
  Q 515.68 440.50 515.52 440.09
  L 510.61 427.42
  Q 510.15 424.59 508.87 422.30
  Q 508.63 421.87 508.17 421.71
  Q 477.32 410.49 446.19 400.10
  Q 444.74 399.62 445.89 400.62
  L 480.71 430.91
  Z"
/>
<path fill="#fefefe" d="
  M 166.36 224.15
  L 146.06 219.64
  Q 146.00 219.11 146.53 218.27
  Q 182.27 161.84 242.77 133.22
  A 1.35 1.35 0.0 0 0 243.43 132.53
  L 250.30 116.01
  A 0.54 0.54 0.0 0 0 250.01 115.30
  L 238.61 110.43
  A 0.48 0.48 0.0 0 1 238.61 109.55
  C 257.39 101.79 276.40 96.00 296.22 92.74
  Q 368.36 80.85 437.26 109.50
  A 0.54 0.54 0.0 0 1 437.26 110.50
  L 426.00 115.28
  Q 425.49 115.50 425.70 116.02
  L 432.55 132.49
  A 1.53 1.52 -89.0 0 0 433.33 133.30
  Q 479.00 154.68 511.54 193.52
  Q 512.08 194.17 511.25 194.25
  L 487.77 196.55
  A 1.38 1.38 0.0 0 1 486.65 196.13
  Q 461.68 170.09 429.43 153.96
  Q 428.93 153.71 428.43 153.98
  Q 419.23 158.86 408.57 162.89
  Q 408.03 163.10 408.16 162.53
  Q 408.73 160.04 409.50 158.00
  Q 413.34 147.73 417.17 137.94
  Q 417.38 137.42 417.06 136.97
  Q 413.66 132.08 409.73 126.45
  Q 409.15 125.61 408.16 125.29
  Q 337.87 102.39 267.51 125.39
  A 2.09 2.03 -80.7 0 0 266.46 126.17
  L 258.99 136.88
  Q 258.66 137.35 258.87 137.89
  L 268.12 162.44
  A 0.40 0.40 0.0 0 1 267.61 162.95
  Q 257.02 158.97 247.56 153.99
  Q 247.06 153.72 246.55 153.98
  Q 197.91 178.29 167.04 224.05
  Q 166.79 224.42 166.36 224.15
  Z"
/>
<path fill="#fefefe" d="
  M 325.29 148.08
  L 337.65 133.34
  A 0.44 0.44 0.0 0 1 338.33 133.34
  L 350.71 148.08
  A 0.44 0.44 0.0 0 1 350.80 148.45
  L 338.43 213.63
  A 0.44 0.44 0.0 0 1 337.57 213.63
  L 325.20 148.44
  A 0.44 0.44 0.0 0 1 325.29 148.08
  Z"
/>
<path fill="#fefefe" d="
  M 182.25 227.29
  L 179.63 226.24
  C 195.73 203.45 217.94 182.76 242.92 169.39
  A 1.17 1.17 0.0 0 1 244.48 169.84
  Q 244.60 170.04 244.65 170.28
  A 0.87 0.86 69.1 0 1 244.25 171.18
  Q 238.08 174.92 232.40 178.67
  Q 207.73 194.96 188.76 218.80
  Q 185.38 223.05 182.25 227.29
  Z"
/>
<path fill="#fefefe" d="
  M 435.27 170.53
  Q 455.53 182.31 471.85 197.95
  A 0.11 0.11 0.0 0 1 471.79 198.14
  L 468.81 198.38
  Q 468.54 198.41 468.33 198.22
  Q 452.02 182.94 431.74 171.27
  Q 430.99 170.84 431.41 170.07
  L 431.64 169.67
  A 0.77 0.76 -66.3 0 1 432.54 169.31
  Q 433.94 169.76 435.27 170.53
  Z"
/>
<path fill="#e80600" d="
  M 546.22 422.44
  L 573.46 417.79
  Q 573.40 418.62 573.18 419.25
  Q 547.29 491.84 486.07 538.31
  A 0.26 0.26 0.0 0 1 485.67 538.21
  Q 485.38 537.54 485.48 536.78
  Q 486.24 530.92 486.85 525.61
  Q 486.92 525.01 486.32 524.93
  L 468.83 522.66
  A 1.98 1.94 -58.2 0 0 467.45 523.00
  C 389.27 577.50 286.35 577.16 208.27 522.86
  A 1.27 1.24 58.1 0 0 207.37 522.64
  L 189.71 524.92
  Q 189.05 525.01 189.13 525.66
  L 190.59 537.74
  A 0.55 0.54 15.7 0 1 189.71 538.23
  C 179.26 530.03 169.18 521.41 160.14 512.04
  Q 109.68 459.78 94.08 387.75
  Q 93.95 387.17 94.25 386.99
  L 121.52 395.52
  L 125.17 408.16
  Q 125.32 408.67 125.78 408.92
  C 131.46 412.03 137.28 414.98 143.80 415.15
  C 159.99 415.58 178.25 410.55 193.15 403.74
  C 199.69 400.75 206.19 397.62 212.41 394.13
  Q 243.27 376.77 274.13 359.51
  Q 274.63 359.23 274.60 358.65
  Q 274.47 356.20 273.46 353.99
  Q 270.05 346.60 267.82 338.14
  Q 267.06 335.24 267.65 332.46
  Q 269.27 324.73 273.27 317.94
  Q 273.61 317.37 274.22 317.08
  Q 277.77 315.43 282.23 316.15
  A 0.43 0.43 0.0 0 0 282.67 315.51
  L 281.61 313.67
  Q 281.36 313.24 281.40 312.75
  C 281.82 306.97 282.48 299.19 285.52 294.24
  Q 289.42 287.86 295.45 282.79
  A 1.68 1.63 24.6 0 1 296.55 282.40
  C 299.80 282.47 304.65 281.80 307.44 283.81
  Q 309.62 285.40 312.48 288.94
  Q 314.58 291.54 319.47 294.63
  Q 320.14 295.05 319.85 294.32
  C 317.32 288.02 315.55 282.22 315.43 275.15
  Q 315.40 272.84 316.60 270.99
  C 319.36 266.73 322.25 262.37 326.95 260.23
  Q 335.58 256.31 341.69 253.86
  C 344.67 252.67 346.47 254.33 348.83 255.83
  Q 352.16 257.95 353.29 260.09
  Q 354.76 262.87 356.02 266.43
  Q 356.35 267.36 356.71 266.44
  C 357.47 264.51 358.28 262.87 359.80 261.41
  Q 368.46 253.13 381.48 253.00
  C 384.14 252.98 387.07 256.69 387.86 258.67
  Q 390.24 264.62 391.43 272.09
  Q 393.03 282.08 393.86 291.71
  A 0.38 0.38 0.0 0 0 394.43 292.01
  Q 424.30 275.26 455.01 258.03
  C 460.09 255.18 466.30 251.58 469.96 247.32
  A 2.29 2.29 0.0 0 0 469.12 243.71
  Q 466.43 242.56 463.52 242.29
  Q 456.08 241.60 449.08 242.08
  Q 447.52 242.19 448.98 241.66
  L 598.76 187.02
  Q 600.46 186.39 599.07 187.56
  L 477.16 289.69
  Q 475.53 291.05 476.74 289.31
  Q 481.41 282.61 484.71 274.15
  Q 485.78 271.41 484.26 269.35
  Q 483.87 268.82 483.21 268.90
  C 478.14 269.50 472.58 272.51 467.20 275.70
  Q 434.27 295.20 405.77 312.14
  A 0.40 0.39 48.0 0 0 405.74 312.80
  C 408.27 314.72 412.03 318.20 412.38 321.54
  C 412.72 324.73 412.91 327.84 411.62 330.94
  C 406.21 343.98 398.84 355.64 393.92 367.57
  Q 390.49 375.90 387.01 384.82
  Q 383.16 394.71 381.45 402.53
  C 377.56 420.28 378.06 437.48 379.69 455.92
  C 380.47 464.86 380.26 473.98 381.34 482.89
  Q 383.77 502.94 385.65 522.29
  Q 385.72 522.96 386.37 522.79
  C 403.31 518.39 419.37 511.86 435.07 502.79
  Q 435.98 502.26 436.82 502.91
  Q 436.96 503.02 437.01 503.20
  Q 437.25 504.11 436.45 504.61
  C 421.42 514.13 403.86 520.97 386.68 525.61
  A 0.63 0.63 0.0 0 0 386.22 526.30
  L 387.60 536.95
  A 0.43 0.42 -10.5 0 0 388.12 537.30
  Q 422.53 528.52 451.66 509.17
  Q 452.12 508.87 452.14 508.32
  Q 452.60 497.05 454.32 486.79
  Q 454.52 485.59 455.29 486.53
  L 471.65 506.46
  A 1.34 1.32 -21.5 0 0 472.80 506.95
  L 485.64 505.89
  Q 486.21 505.85 486.65 505.46
  Q 525.57 471.06 545.33 423.05
  Q 545.45 422.75 546.22 422.44
  Z
  M 221.73 486.62
  Q 223.31 497.14 223.86 508.24
  A 1.32 1.30 15.8 0 0 224.45 509.27
  Q 253.26 528.27 286.21 536.86
  A 0.46 0.46 0.0 0 0 286.78 536.48
  L 288.16 525.72
  A 0.51 0.51 0.0 0 0 287.79 525.16
  Q 261.17 517.81 239.52 504.66
  A 1.15 1.14 -74.1 0 1 238.97 503.66
  Q 239.00 502.57 239.81 502.62
  Q 240.73 502.66 241.48 503.10
  Q 264.06 516.11 288.01 522.38
  A 0.50 0.49 9.9 0 0 288.63 521.95
  Q 289.48 511.69 291.30 501.67
  Q 292.29 496.20 293.02 491.68
  Q 297.57 463.24 300.51 433.90
  Q 300.78 431.19 300.14 428.98
  C 297.25 419.06 293.49 407.56 286.88 399.46
  C 283.87 395.79 282.05 391.55 281.24 386.90
  A 0.50 0.50 0.0 0 0 280.49 386.55
  Q 253.80 402.43 227.72 417.89
  C 220.86 421.96 213.01 427.16 207.59 431.10
  Q 200.07 436.55 190.74 445.73
  Q 181.89 454.43 175.40 464.94
  C 171.34 471.51 170.49 478.02 170.46 486.25
  Q 170.45 486.78 170.81 487.17
  Q 179.87 497.07 189.34 505.48
  Q 189.73 505.84 190.26 505.88
  L 203.08 506.95
  Q 203.89 507.02 204.41 506.39
  L 220.83 486.37
  A 0.51 0.51 0.0 0 1 221.73 486.62
  Z"
/>
<path fill="#1c2a78" d="
  M 146.06 219.64
  L 166.36 224.15
  Q 166.37 225.13 165.99 225.73
  Q 129.29 282.59 132.80 350.54
  Q 132.84 351.35 133.52 351.77
  Q 142.73 357.56 151.28 364.62
  A 0.26 0.25 59.4 0 1 151.17 365.07
  Q 138.56 367.55 125.42 369.36
  Q 124.62 369.47 124.28 370.21
  L 118.73 382.03
  A 1.71 1.71 0.0 0 0 118.62 383.15
  L 121.52 395.52
  L 94.25 386.99
  L 90.49 366.65
  Q 90.32 365.76 91.23 365.86
  Q 91.56 365.90 92.15 366.35
  Q 96.75 369.86 101.09 373.16
  A 0.58 0.58 0.0 0 0 101.90 373.05
  Q 106.98 366.41 112.46 359.25
  Q 112.97 358.59 112.91 357.76
  Q 107.38 283.27 145.31 220.21
  Q 145.46 219.96 146.06 219.64
  Z"
/>
<path fill="#1c2a78" d="
  M 179.63 226.24
  L 182.25 227.29
  Q 147.84 276.48 146.90 336.75
  Q 146.87 338.74 146.45 340.54
  A 0.80 0.79 -83.0 0 1 145.68 341.15
  Q 144.64 341.17 144.59 340.18
  Q 144.24 334.10 144.61 327.51
  Q 147.77 271.75 179.63 226.24
  Z"
/>
<path fill="#1c2a78" d="
  M 573.46 417.79
  L 546.22 422.44
  Q 545.86 421.71 546.05 421.25
  Q 553.37 402.75 557.37 382.97
  Q 557.48 382.44 557.24 381.94
  L 551.74 370.32
  A 1.52 1.51 -8.0 0 0 550.62 369.48
  L 525.37 365.31
  Q 524.09 365.10 525.09 364.28
  Q 533.69 357.30 542.51 351.73
  A 1.35 1.35 0.0 0 0 543.13 350.67
  Q 545.28 314.75 535.11 279.89
  A 1.47 1.47 0.0 0 1 535.32 278.61
  L 549.04 259.36
  A 0.38 0.38 0.0 0 1 549.71 259.45
  Q 567.16 306.98 562.95 357.52
  A 2.23 2.22 -61.3 0 0 563.40 359.08
  L 574.12 373.07
  A 0.54 0.54 0.0 0 0 574.88 373.17
  L 584.57 365.84
  A 0.55 0.55 0.0 0 1 585.43 366.13
  Q 585.60 366.74 585.41 367.41
  Q 585.24 367.97 585.16 368.59
  Q 581.79 393.58 573.80 417.50
  Q 573.63 418.02 573.46 417.79
  Z"
/>
<path fill="#1c2a78" d="
  M 526.34 292.43
  Q 532.06 316.76 531.49 340.02
  A 0.98 0.91 -29.7 0 1 531.34 340.49
  Q 530.41 341.93 529.43 340.15
  A 1.16 1.14 31.6 0 1 529.30 339.62
  Q 529.15 315.84 524.28 295.26
  A 2.04 2.03 56.5 0 1 524.62 293.58
  L 525.57 292.27
  Q 526.12 291.52 526.34 292.43
  Z"
/>
<path fill="#181c2a" d="
  M 221.73 486.62
  A 0.51 0.51 0.0 0 0 220.83 486.37
  L 204.41 506.39
  Q 203.89 507.02 203.08 506.95
  L 190.26 505.88
  Q 189.73 505.84 189.34 505.48
  Q 179.87 497.07 170.81 487.17
  Q 170.45 486.78 170.46 486.25
  C 170.49 478.02 171.34 471.51 175.40 464.94
  Q 181.89 454.43 190.74 445.73
  Q 200.07 436.55 207.59 431.10
  C 213.01 427.16 220.86 421.96 227.72 417.89
  Q 253.80 402.43 280.49 386.55
  A 0.50 0.50 0.0 0 1 281.24 386.90
  C 282.05 391.55 283.87 395.79 286.88 399.46
  C 293.49 407.56 297.25 419.06 300.14 428.98
  Q 300.78 431.19 300.51 433.90
  Q 297.57 463.24 293.02 491.68
  Q 292.29 496.20 291.30 501.67
  Q 289.48 511.69 288.63 521.95
  A 0.50 0.49 9.9 0 1 288.01 522.38
  Q 264.06 516.11 241.48 503.10
  Q 240.73 502.66 239.81 502.62
  Q 239.00 502.57 238.97 503.66
  A 1.15 1.14 -74.1 0 0 239.52 504.66
  Q 261.17 517.81 287.79 525.16
  A 0.51 0.51 0.0 0 1 288.16 525.72
  L 286.78 536.48
  A 0.46 0.46 0.0 0 1 286.21 536.86
  Q 253.26 528.27 224.45 509.27
  A 1.32 1.30 15.8 0 1 223.86 508.24
  Q 223.31 497.14 221.73 486.62
  Z"
/>
<path fill="#1c2a78" d="
  M 510.61 427.42
  L 480.71 430.91
  L 445.89 400.62
  Q 444.74 399.62 446.19 400.10
  Q 477.32 410.49 508.17 421.71
  Q 508.63 421.87 508.87 422.30
  Q 510.15 424.59 510.61 427.42
  Z"
/>
<path fill="#e80600" d="
  M 510.61 427.42
  L 515.52 440.09
  Q 515.68 440.50 515.24 440.58
  L 496.80 443.86
  A 1.45 1.45 0.0 0 1 495.58 443.53
  L 480.71 430.91
  L 510.61 427.42
  Z"
/>
</svg>
